<?xml version="1.0" standalone="no"?>
<!DOCTYPE svg PUBLIC "-//W3C//DTD SVG 20010904//EN"
 "http://www.w3.org/TR/2001/REC-SVG-20010904/DTD/svg10.dtd">
<svg version="1.0" xmlns="http://www.w3.org/2000/svg"
 width="195.000000pt" height="177.000000pt" viewBox="0 0 195.000000 177.000000"
 preserveAspectRatio="xMidYMid meet">

<g transform="translate(0.000000,177.000000) scale(0.100000,-0.100000)"
fill="#000000" stroke="none">
<path d="M1252 1434 l3 -66 58 -32 c32 -17 65 -42 73 -56 8 -16 13 -58 14
-118 0 -120 22 -163 104 -204 l28 -15 -46 -27 c-72 -42 -86 -73 -86 -186 0
-55 -5 -105 -13 -119 -19 -38 -64 -66 -106 -66 -55 0 -100 40 -160 138 l-50
83 -101 18 c-56 10 -104 15 -107 12 -3 -3 48 -76 113 -163 117 -155 121 -159
194 -196 41 -21 92 -40 113 -44 51 -8 187 37 250 83 68 49 87 95 87 211 0 113
8 135 60 168 40 25 40 25 40 90 0 61 -2 65 -29 80 -60 30 -71 57 -71 170 0 87
-3 108 -23 146 -37 70 -145 123 -315 153 l-33 6 3 -66z"/>
<path d="M443 1334 c-102 -37 -158 -137 -147 -263 8 -81 -11 -133 -56 -159
-29 -17 -30 -19 -30 -92 0 -74 0 -75 35 -98 44 -31 55 -67 53 -172 -3 -132 35
-185 193 -270 50 -26 185 -57 197 -45 3 2 -7 43 -22 89 -26 83 -28 86 -70 105
-67 29 -80 56 -78 163 2 104 -10 139 -67 191 l-36 33 38 39 c56 57 67 90 65
192 -1 52 3 97 10 110 16 29 71 47 105 34 33 -13 47 -35 102 -158 l45 -98 110
-19 c60 -11 112 -17 115 -14 3 2 -16 43 -41 89 -25 46 -73 134 -106 194 -33
61 -65 115 -71 121 -16 16 -179 44 -247 43 -30 0 -74 -7 -97 -15z"/>
</g>
</svg>
